<svg width="8602" height="4075" viewBox="0 0 8602 4075" fill="none" xmlns="http://www.w3.org/2000/svg">
<mask id="path-1-outside-1_22:24" maskUnits="userSpaceOnUse" x="380" y="345" width="3387" height="3387" fill="black">
<rect fill="white" x="380" y="345" width="3387" height="3387"/>
<path fill-rule="evenodd" clip-rule="evenodd" d="M3453.75 2377.02C3445.53 2808.51 3333.55 3122.88 3117.81 3320.13C2902.07 3517.38 2553.8 3616 2073 3616C1592.2 3616 1243.93 3517.38 1028.19 3320.13C812.449 3122.88 700.469 2808.51 692.25 2377.02C632.664 2344.15 584.893 2297.4 548.936 2236.79C512.979 2176.18 495 2109.91 495 2038V1643.5C495 1571.59 512.979 1505.84 548.936 1446.25C584.893 1386.66 632.664 1339.41 692.25 1304.48V558.625C692.25 531.914 702.01 508.799 721.529 489.279C741.049 469.76 764.164 460 790.875 460C817.586 460 840.701 469.76 860.221 489.279C879.74 508.799 889.5 531.914 889.5 558.625V1131.88C1012.78 926.414 1179.21 763.066 1388.79 641.84C1598.37 520.613 1826.44 460 2073 460C2346.27 460 2594.89 532.941 2818.85 678.824C3042.81 824.707 3210.27 1016.82 3321.22 1255.16C3415.74 1271.6 3494.33 1316.29 3557 1389.23C3619.67 1462.17 3651 1546.93 3651 1643.5V2038C3651 2109.91 3633.02 2176.18 3597.07 2236.79C3561.11 2297.4 3513.34 2344.15 3453.75 2377.02ZM2073 3021.11C2726.89 3021.11 3256.98 2491.02 3256.98 1837.13C3256.98 1183.23 2726.89 653.145 2073 653.145C1419.1 653.145 889.016 1183.23 889.016 1837.13C889.016 2491.02 1419.1 3021.11 2073 3021.11Z"/>
</mask>
<path fill-rule="evenodd" clip-rule="evenodd" d="M3453.75 2377.02C3445.53 2808.51 3333.55 3122.88 3117.81 3320.13C2902.07 3517.38 2553.8 3616 2073 3616C1592.2 3616 1243.93 3517.38 1028.19 3320.13C812.449 3122.88 700.469 2808.51 692.25 2377.02C632.664 2344.15 584.893 2297.4 548.936 2236.79C512.979 2176.18 495 2109.91 495 2038V1643.5C495 1571.59 512.979 1505.84 548.936 1446.25C584.893 1386.66 632.664 1339.41 692.25 1304.48V558.625C692.25 531.914 702.01 508.799 721.529 489.279C741.049 469.76 764.164 460 790.875 460C817.586 460 840.701 469.76 860.221 489.279C879.74 508.799 889.5 531.914 889.5 558.625V1131.88C1012.78 926.414 1179.21 763.066 1388.79 641.84C1598.37 520.613 1826.44 460 2073 460C2346.27 460 2594.89 532.941 2818.85 678.824C3042.81 824.707 3210.27 1016.82 3321.22 1255.16C3415.74 1271.6 3494.33 1316.29 3557 1389.23C3619.67 1462.17 3651 1546.93 3651 1643.5V2038C3651 2109.91 3633.02 2176.18 3597.07 2236.79C3561.11 2297.4 3513.34 2344.15 3453.75 2377.02ZM2073 3021.11C2726.89 3021.11 3256.98 2491.02 3256.98 1837.13C3256.98 1183.23 2726.89 653.145 2073 653.145C1419.1 653.145 889.016 1183.23 889.016 1837.13C889.016 2491.02 1419.1 3021.11 2073 3021.11Z" fill="white"/>
<path d="M3117.81 3320.13L3195.41 3405L3195.41 3405L3117.81 3320.13ZM3453.75 2377.02L3398.2 2276.33C3362.21 2296.19 3339.55 2333.74 3338.77 2374.83L3453.75 2377.02ZM1028.19 3320.13L950.593 3405L950.593 3405L1028.19 3320.13ZM692.25 2377.02L807.229 2374.83C806.446 2333.74 783.791 2296.19 747.804 2276.33L692.25 2377.02ZM548.936 2236.79L647.842 2178.12L647.842 2178.12L548.936 2236.79ZM548.936 1446.25L647.397 1505.67L647.397 1505.67L548.936 1446.25ZM692.25 1304.48L750.408 1403.69C785.618 1383.05 807.25 1345.29 807.25 1304.48H692.25ZM721.529 489.279L802.847 570.597L802.847 570.597L721.529 489.279ZM860.221 489.279L941.538 407.962L941.538 407.962L860.221 489.279ZM889.5 1131.88H774.5C774.5 1183.57 808.988 1228.91 858.803 1242.71C908.617 1256.51 961.517 1235.37 988.112 1191.05L889.5 1131.88ZM1388.79 641.84L1446.37 741.386L1446.37 741.386L1388.79 641.84ZM2818.85 678.824L2756.09 775.185L2756.09 775.185L2818.85 678.824ZM3321.22 1255.16L3216.97 1303.7C3232.85 1337.82 3264.43 1362.01 3301.52 1368.46L3321.22 1255.16ZM3195.41 3405C3443.58 3178.1 3560.2 2827.17 3568.73 2379.21L3338.77 2374.83C3330.87 2789.85 3223.52 3067.65 3040.21 3235.25L3195.41 3405ZM2073 3731C2565.13 3731 2948.42 3630.81 3195.41 3405L3040.21 3235.25C2855.71 3403.94 2542.46 3501 2073 3501V3731ZM950.593 3405C1197.58 3630.81 1580.87 3731 2073 3731V3501C1603.54 3501 1290.29 3403.94 1105.79 3235.25L950.593 3405ZM577.271 2379.21C585.803 2827.17 702.421 3178.1 950.593 3405L1105.79 3235.25C922.478 3067.65 815.134 2789.85 807.229 2374.83L577.271 2379.21ZM450.029 2295.46C496.048 2373.04 558.519 2434.58 636.696 2477.72L747.804 2276.33C706.809 2253.71 673.737 2221.77 647.842 2178.12L450.029 2295.46ZM380 2038C380 2130.12 403.314 2216.72 450.029 2295.46L647.842 2178.12C622.643 2135.64 610 2089.71 610 2038H380ZM380 1643.5V2038H610V1643.5H380ZM450.474 1386.83C403.325 1464.97 380 1551.38 380 1643.5H610C610 1591.8 622.632 1546.71 647.397 1505.67L450.474 1386.83ZM634.092 1205.27C557.833 1249.97 496.259 1310.96 450.474 1386.83L647.397 1505.67C673.526 1462.37 707.495 1428.84 750.408 1403.69L634.092 1205.27ZM577.25 558.625V1304.48H807.25V558.625H577.25ZM640.212 407.962C599.932 448.242 577.25 500.292 577.25 558.625H807.25C807.25 559.63 806.99 562.491 805.514 565.987C804.069 569.409 802.525 570.918 802.847 570.597L640.212 407.962ZM790.875 345C732.542 345 680.492 367.682 640.212 407.962L802.847 570.597C803.168 570.275 801.659 571.819 798.237 573.264C794.741 574.74 791.88 575 790.875 575V345ZM941.538 407.962C901.258 367.682 849.208 345 790.875 345V575C789.871 575 787.009 574.74 783.513 573.264C780.092 571.819 778.582 570.275 778.904 570.597L941.538 407.962ZM1004.5 558.625C1004.5 500.292 981.818 448.242 941.538 407.962L778.904 570.597C779.225 570.918 777.681 569.408 776.237 565.987C774.76 562.491 774.5 559.63 774.5 558.625H1004.5ZM1004.5 1131.88V558.625H774.5V1131.88H1004.5ZM1331.21 542.294C1104.94 673.177 924.311 850.345 790.888 1072.72L988.112 1191.05C1101.25 1002.48 1253.49 852.956 1446.37 741.386L1331.21 542.294ZM2073 345C1806.61 345 1558.62 410.75 1331.21 542.294L1446.37 741.386C1638.11 630.476 1846.27 575 2073 575V345ZM2881.62 582.464C2638.55 424.131 2368.03 345 2073 345V575C2324.52 575 2551.24 641.751 2756.09 775.185L2881.62 582.464ZM3425.48 1206.63C3305.29 948.436 3123.3 739.886 2881.62 582.464L2756.09 775.185C2962.33 909.528 3115.25 1085.2 3216.97 1303.7L3425.48 1206.63ZM3644.23 1314.29C3564.22 1221.17 3461.79 1162.88 3340.93 1141.86L3301.52 1368.46C3369.69 1380.32 3424.44 1411.41 3469.77 1464.17L3644.23 1314.29ZM3766 1643.5C3766 1519.56 3724.9 1408.19 3644.23 1314.29L3469.77 1464.17C3514.44 1516.16 3536 1574.3 3536 1643.5H3766ZM3766 2038V1643.5H3536V2038H3766ZM3695.97 2295.46C3742.69 2216.72 3766 2130.12 3766 2038H3536C3536 2089.71 3523.36 2135.64 3498.16 2178.12L3695.97 2295.46ZM3509.3 2477.72C3587.48 2434.58 3649.95 2373.04 3695.97 2295.46L3498.16 2178.12C3472.26 2221.77 3439.19 2253.71 3398.2 2276.33L3509.3 2477.72ZM3141.98 1837.13C3141.98 2427.51 2663.38 2906.11 2073 2906.11V3136.11C2790.41 3136.11 3371.98 2554.54 3371.98 1837.13H3141.98ZM2073 768.145C2663.38 768.145 3141.98 1246.74 3141.98 1837.13H3371.98C3371.98 1119.72 2790.41 538.145 2073 538.145V768.145ZM1004.02 1837.13C1004.02 1246.74 1482.62 768.145 2073 768.145V538.145C1355.59 538.145 774.016 1119.72 774.016 1837.13H1004.02ZM2073 2906.11C1482.62 2906.11 1004.02 2427.51 1004.02 1837.13H774.016C774.016 2554.54 1355.59 3136.11 2073 3136.11V2906.11Z" fill="black" mask="url(#path-1-outside-1_22:24)"/>
<circle cx="2073" cy="1837.13" r="1183.98" fill="black"/>
<path d="M2358.18 899.026C1858.67 934.987 1464.59 1351.63 1464.59 1860.3C1464.59 2368.98 1858.67 2785.62 2358.18 2821.58C2267.79 2848.36 2172.07 2862.73 2073 2862.73C1519.38 2862.73 1070.57 2413.93 1070.57 1860.3C1070.57 1306.68 1519.38 857.879 2073 857.879C2172.07 857.879 2267.79 872.252 2358.18 899.026Z" fill="white"/>
<path d="M3094.74 1817.81C3094.74 1549.34 3013.62 1371.65 2930.57 1300.18C2990.45 1468.22 3021.35 1593.77 3021.35 1817.81C3021.35 2041.86 3006.61 2213.76 2930.57 2395.32C2962.12 2319.99 3094.74 2107.53 3094.74 1817.81Z" fill="white"/>
<path d="M4263.59 2062V1030.01H4689.36C4788.99 1030.01 4862.3 1055.85 4909.29 1107.55C4956.29 1158.3 4979.78 1224.56 4979.78 1306.33C4979.78 1358.97 4968.03 1406.9 4944.54 1450.13C4921.04 1492.43 4885.79 1517.81 4838.8 1526.27C4883.91 1534.72 4921.51 1560.1 4951.59 1602.4C4981.66 1643.75 4996.7 1695.91 4996.7 1758.89C4996.7 1807.76 4990.59 1850.53 4978.37 1887.18C4967.09 1923.84 4949.24 1955.32 4924.8 1981.64C4901.3 2007.96 4869.82 2028.16 4830.34 2042.26C4791.81 2055.42 4745.75 2062 4692.18 2062H4263.59ZM4460.97 1887.18L4685.13 1888.59C4761.26 1888.59 4799.32 1842.54 4799.32 1750.43C4799.32 1723.17 4795.57 1699.2 4788.05 1678.53C4781.47 1657.85 4769.25 1640.46 4751.39 1626.36C4733.53 1612.26 4711.45 1605.22 4685.13 1605.22H4460.97V1887.18ZM4460.97 1438.86H4676.67C4712.39 1438.86 4739.17 1428.99 4757.03 1409.25C4775.83 1388.57 4785.23 1359.44 4785.23 1321.84C4785.23 1306.8 4783.82 1293.17 4781 1280.95C4778.18 1267.8 4773.95 1256.99 4768.31 1248.53C4762.67 1240.07 4756.56 1233.02 4749.98 1227.38C4743.4 1220.8 4735.88 1216.1 4727.42 1213.28C4718.96 1210.46 4710.51 1208.58 4702.05 1207.64C4694.53 1205.76 4686.07 1204.82 4676.67 1204.82H4460.97V1438.86ZM5072.15 1861.8V1030.01H5269.52V1806.82C5269.52 1824.68 5271.4 1839.25 5275.16 1850.53C5279.86 1860.86 5287.38 1867.91 5297.72 1871.67C5309 1875.43 5317.93 1877.78 5324.51 1878.72C5331.09 1879.66 5341.9 1880.13 5356.93 1880.13H5710.8V2062H5286.44C5143.58 2062 5072.15 1995.27 5072.15 1861.8ZM5789.84 1610.85V1030.01H5987.22V1610.85C5987.22 1670.07 5990.5 1717.53 5997.08 1753.25C6003.66 1788.96 6015.41 1817.16 6032.33 1837.84C6049.25 1857.57 6069.46 1870.73 6092.95 1877.31C6116.45 1883.89 6147.94 1887.18 6187.41 1887.18C6222.19 1887.18 6250.85 1883.42 6273.41 1875.9C6295.97 1868.38 6315.24 1854.76 6331.21 1835.02C6348.13 1814.34 6360.35 1786.14 6367.87 1750.43C6375.39 1713.77 6379.15 1667.25 6379.15 1610.85V1030.01H6577.93V1610.85C6577.93 1660.67 6575.11 1706.25 6569.47 1747.61C6563.84 1788.02 6556.79 1823.27 6548.33 1853.35C6539.87 1882.48 6528.12 1908.8 6513.08 1932.3C6498.98 1955.79 6484.88 1975.06 6470.79 1990.1C6457.63 2004.2 6440.24 2016.89 6418.62 2028.16C6397.95 2038.5 6380.09 2046.49 6365.05 2052.13C6350.01 2056.83 6329.8 2060.59 6304.43 2063.41C6279.99 2066.23 6260.25 2067.64 6245.21 2067.64C6231.12 2068.58 6211.85 2069.05 6187.41 2069.05C6184.59 2069.05 6179.89 2069.05 6173.31 2069.05C6137.6 2069.05 6110.34 2068.58 6091.54 2067.64C6073.68 2066.7 6048.78 2063.41 6016.82 2057.77C5984.87 2052.13 5959.96 2044.14 5942.1 2033.8C5925.18 2022.52 5905.45 2006.08 5882.89 1984.46C5860.33 1961.9 5843.41 1934.65 5832.13 1902.69C5820.86 1870.73 5810.99 1830.32 5802.53 1781.44C5794.07 1731.63 5789.84 1674.77 5789.84 1610.85ZM6680.94 1858.98V1244.3C6680.94 1209.52 6685.64 1178.98 6695.04 1152.66C6704.44 1126.34 6716.65 1105.67 6731.69 1090.63C6746.73 1075.59 6764.12 1063.37 6783.86 1053.97C6804.53 1043.63 6824.27 1037.05 6843.07 1034.23C6862.81 1031.42 6883.48 1030.01 6905.1 1030.01C7147.59 1036.58 7298.91 1044.1 7359.07 1052.56V1216.1H6951.63C6933.77 1216.1 6919.67 1217.98 6909.33 1221.74C6898.99 1225.5 6891.47 1232.08 6886.77 1241.48C6883.01 1250.88 6880.66 1258.87 6879.72 1265.45C6878.78 1272.03 6878.32 1281.89 6878.32 1295.05V1455.77L7295.62 1469.87V1633.41L6878.32 1646.1V1806.82C6878.32 1824.68 6880.66 1839.25 6885.36 1850.53C6890.06 1860.86 6897.58 1868.38 6907.92 1873.08C6918.26 1876.84 6926.72 1879.19 6933.3 1880.13C6940.82 1880.13 6951.63 1880.13 6965.72 1880.13H7359.07V2042.26C7335.57 2045.08 7287.17 2048.84 7213.85 2053.54C7140.54 2057.3 7072.87 2060.12 7010.84 2062L6919.2 2066.23C6897.58 2067.17 6877.38 2066.7 6858.58 2064.82C6839.78 2062.94 6819.1 2057.77 6796.54 2049.31C6773.99 2040.85 6754.25 2029.57 6737.33 2015.48C6721.35 2001.38 6707.73 1981.17 6696.45 1954.85C6686.11 1927.6 6680.94 1895.64 6680.94 1858.98ZM4236.8 3214L4327.03 2182.01H4601.95L4773.95 2886.92L4944.54 2182.01H5218.04L5313.91 3214H5119.36L5051.68 2524.59L4885.32 3214H4665.39L4491.98 2524.59L4431.36 3214H4236.8ZM5399.46 2705.05C5399.46 2657.12 5400.87 2612.94 5403.69 2572.53C5407.45 2532.11 5412.62 2495.93 5419.2 2463.97C5426.72 2432.02 5434.71 2403.35 5443.16 2377.97C5452.56 2351.65 5463.84 2329.1 5477 2310.3C5490.16 2290.56 5503.32 2273.64 5516.48 2259.55C5530.57 2244.51 5547.02 2232.29 5565.82 2222.89C5584.62 2212.55 5602.48 2204.56 5619.39 2198.92C5637.25 2192.34 5657.46 2187.64 5680.02 2184.83C5702.57 2181.07 5723.72 2178.72 5743.46 2177.78C5764.14 2175.9 5787.63 2174.96 5813.95 2174.96C5847.79 2174.96 5876.92 2175.9 5901.36 2177.78C5926.74 2179.66 5953.05 2183.89 5980.31 2190.46C6008.51 2196.1 6032.47 2204.56 6052.21 2215.84C6071.95 2227.12 6091.69 2241.69 6111.42 2259.55C6132.1 2276.46 6149.02 2298.55 6162.18 2325.81C6175.34 2352.12 6187.08 2383.14 6197.42 2418.86C6207.76 2453.63 6215.28 2495.46 6219.98 2544.33C6225.62 2592.27 6228.44 2645.84 6228.44 2705.05C6228.44 2768.96 6224.68 2826.3 6217.16 2877.05C6210.58 2926.86 6201.65 2970.1 6190.37 3006.76C6179.1 3042.47 6163.59 3073.49 6143.85 3099.8C6125.05 3125.18 6104.84 3145.86 6083.23 3161.84C6062.55 3176.87 6037.17 3189.09 6007.1 3198.49C5977.02 3206.95 5946.94 3212.59 5916.87 3215.41C5887.73 3218.23 5853.42 3219.64 5813.95 3219.64C5779.17 3219.64 5748.63 3218.7 5722.31 3216.82C5696.93 3214.94 5670.15 3211.18 5641.95 3205.54C5614.69 3199.9 5591.2 3191.91 5571.46 3181.57C5551.72 3170.3 5531.98 3156.2 5512.25 3139.28C5492.51 3121.42 5476.06 3099.8 5462.9 3074.43C5449.74 3048.11 5438 3018.03 5427.66 2984.2C5418.26 2949.42 5411.21 2909.01 5406.51 2862.95C5401.81 2815.96 5399.46 2763.32 5399.46 2705.05ZM5596.84 2705.05C5596.84 2763.32 5598.72 2811.26 5602.48 2848.85C5606.23 2885.51 5612.34 2917 5620.8 2943.31C5630.2 2969.63 5643.83 2989.37 5661.69 3002.53C5679.55 3015.68 5699.75 3025.08 5722.31 3030.72C5745.81 3035.42 5776.35 3037.77 5813.95 3037.77C5872.22 3037.77 5915.93 3029.31 5945.06 3012.39C5974.2 2995.48 5995.82 2963.52 6009.92 2916.53C6024.01 2868.59 6031.06 2798.1 6031.06 2705.05C6031.06 2651.48 6029.18 2605.89 6025.42 2568.3C6022.6 2529.76 6016.96 2497.81 6008.51 2472.43C6000.05 2446.11 5990.65 2425.44 5980.31 2410.4C5970.91 2395.36 5957.28 2384.08 5939.42 2376.56C5921.57 2368.1 5903.24 2362.93 5884.44 2361.05C5866.58 2358.23 5843.09 2356.82 5813.95 2356.82C5789.51 2356.82 5769.3 2357.76 5753.33 2359.64C5738.29 2360.58 5721.84 2363.4 5703.98 2368.1C5687.06 2372.8 5673.44 2380.32 5663.1 2390.66C5653.7 2400.06 5643.83 2413.22 5633.49 2430.14C5624.09 2447.05 5617.04 2468.2 5612.34 2493.58C5607.64 2518.01 5603.89 2547.62 5601.07 2582.4C5598.25 2617.17 5596.84 2658.06 5596.84 2705.05ZM6303.02 2705.05C6303.02 2657.12 6304.43 2612.94 6307.25 2572.53C6311.01 2532.11 6316.18 2495.93 6322.75 2463.97C6330.27 2432.02 6338.26 2403.35 6346.72 2377.97C6356.12 2351.65 6367.4 2329.1 6380.56 2310.3C6393.72 2290.56 6406.87 2273.64 6420.03 2259.55C6434.13 2244.51 6450.58 2232.29 6469.38 2222.89C6488.17 2212.55 6506.03 2204.56 6522.95 2198.92C6540.81 2192.34 6561.02 2187.64 6583.57 2184.83C6606.13 2181.07 6627.28 2178.72 6647.01 2177.78C6667.69 2175.9 6691.19 2174.96 6717.51 2174.96C6751.34 2174.96 6780.48 2175.9 6804.92 2177.78C6830.29 2179.66 6856.61 2183.89 6883.87 2190.46C6912.06 2196.1 6936.03 2204.56 6955.77 2215.84C6975.5 2227.12 6995.24 2241.69 7014.98 2259.55C7035.66 2276.46 7052.58 2298.55 7065.73 2325.81C7078.89 2352.12 7090.64 2383.14 7100.98 2418.86C7111.32 2453.63 7118.84 2495.46 7123.54 2544.33C7129.18 2592.27 7132 2645.84 7132 2705.05C7132 2768.96 7128.24 2826.3 7120.72 2877.05C7114.14 2926.86 7105.21 2970.1 7093.93 3006.76C7082.65 3042.47 7067.14 3073.49 7047.41 3099.8C7028.61 3125.18 7008.4 3145.86 6986.78 3161.84C6966.11 3176.87 6940.73 3189.09 6910.65 3198.49C6880.58 3206.95 6850.5 3212.59 6820.42 3215.41C6791.29 3218.23 6756.98 3219.64 6717.51 3219.64C6682.73 3219.64 6652.18 3218.7 6625.87 3216.82C6600.49 3214.94 6573.7 3211.18 6545.51 3205.54C6518.25 3199.9 6494.75 3191.91 6475.02 3181.57C6455.28 3170.3 6435.54 3156.2 6415.8 3139.28C6396.07 3121.42 6379.62 3099.8 6366.46 3074.43C6353.3 3048.11 6341.55 3018.03 6331.21 2984.2C6321.81 2949.42 6314.77 2909.01 6310.07 2862.95C6305.37 2815.96 6303.02 2763.32 6303.02 2705.05ZM6500.39 2705.05C6500.39 2763.32 6502.27 2811.26 6506.03 2848.85C6509.79 2885.51 6515.9 2917 6524.36 2943.31C6533.76 2969.63 6547.39 2989.37 6565.24 3002.53C6583.1 3015.68 6603.31 3025.08 6625.87 3030.72C6649.36 3035.42 6679.91 3037.77 6717.51 3037.77C6775.78 3037.77 6819.48 3029.31 6848.62 3012.39C6877.76 2995.48 6899.37 2963.52 6913.47 2916.53C6927.57 2868.59 6934.62 2798.1 6934.62 2705.05C6934.62 2651.48 6932.74 2605.89 6928.98 2568.3C6926.16 2529.76 6920.52 2497.81 6912.06 2472.43C6903.6 2446.11 6894.2 2425.44 6883.87 2410.4C6874.47 2395.36 6860.84 2384.08 6842.98 2376.56C6825.12 2368.1 6806.8 2362.93 6788 2361.05C6770.14 2358.23 6746.64 2356.82 6717.51 2356.82C6693.07 2356.82 6672.86 2357.76 6656.88 2359.64C6641.85 2360.58 6625.4 2363.4 6607.54 2368.1C6590.62 2372.8 6576.99 2380.32 6566.65 2390.66C6557.26 2400.06 6547.39 2413.22 6537.05 2430.14C6527.65 2447.05 6520.6 2468.2 6515.9 2493.58C6511.2 2518.01 6507.44 2547.62 6504.62 2582.4C6501.8 2617.17 6500.39 2658.06 6500.39 2705.05ZM7222.08 3214V2182.01H7422.28L7831.13 2848.85V2182.01H8028.5V3214H7831.13L7420.87 2554.2V3214H7222.08Z" fill="black"/>
</svg>
