<svg width="8602" height="4075" viewBox="0 0 8602 4075" fill="none" xmlns="http://www.w3.org/2000/svg">
<path d="M3454.75 2353.02C3446.53 2784.51 3334.55 3098.88 3118.81 3296.13C2903.07 3493.38 2554.8 3592 2074 3592C1593.2 3592 1244.93 3493.38 1029.19 3296.13C813.449 3098.88 701.469 2784.51 693.25 2353.02C633.664 2320.15 585.893 2273.4 549.936 2212.79C513.979 2152.18 496 2085.91 496 2014V1619.5C496 1547.59 513.979 1481.84 549.936 1422.25C585.893 1362.66 633.664 1315.41 693.25 1280.48V534.625C693.25 507.914 703.01 484.799 722.529 465.279C742.049 445.76 765.164 436 791.875 436C818.586 436 841.701 445.76 861.221 465.279C880.74 484.799 890.5 507.914 890.5 534.625V1107.88C1013.78 902.414 1180.21 739.066 1389.79 617.84C1599.37 496.613 1827.44 436 2074 436C2347.27 436 2595.89 508.941 2819.85 654.824C3043.81 800.707 3211.27 992.82 3322.22 1231.16C3416.74 1247.6 3495.33 1292.29 3558 1365.23C3620.67 1438.17 3652 1522.93 3652 1619.5V2014C3652 2085.91 3634.02 2152.18 3598.07 2212.79C3562.11 2273.4 3514.34 2320.15 3454.75 2353.02ZM2074 633.25C1860.31 633.25 1662.55 686.158 1480.71 791.975C1298.87 897.791 1155.04 1041.62 1049.22 1223.46C943.408 1405.3 890.5 1603.06 890.5 1816.75C890.5 2030.44 943.408 2228.2 1049.22 2410.04C1155.04 2591.88 1298.87 2735.71 1480.71 2841.53C1662.55 2947.34 1860.31 3000.25 2074 3000.25C2287.69 3000.25 2485.45 2947.34 2667.29 2841.53C2849.13 2735.71 2992.96 2591.88 3098.78 2410.04C3204.59 2228.2 3257.5 2030.44 3257.5 1816.75C3257.5 1603.06 3204.59 1405.3 3098.78 1223.46C2992.96 1041.62 2849.13 897.791 2667.29 791.975C2485.45 686.158 2287.69 633.25 2074 633.25ZM1087.75 1816.75C1087.75 1637.99 1131.93 1473.1 1220.28 1322.08C1308.63 1171.06 1428.31 1051.38 1579.33 963.027C1730.35 874.676 1895.24 830.5 2074 830.5C2252.76 830.5 2417.65 874.676 2568.67 963.027C2719.69 1051.38 2839.37 1171.06 2927.72 1322.08C3016.07 1473.1 3060.25 1637.99 3060.25 1816.75C3060.25 1892.77 3051 1960.58 3032.51 2020.16C3014.02 2079.75 2989.88 2130.09 2960.08 2171.18C2930.29 2212.28 2890.74 2247.72 2841.43 2277.51C2792.11 2307.31 2742.29 2330.42 2691.95 2346.86C2641.61 2363.3 2579.97 2376.14 2507.03 2385.39C2434.08 2394.63 2365.77 2400.8 2302.07 2403.88C2238.38 2406.96 2162.35 2408.5 2074 2408.5C1985.65 2408.5 1909.63 2406.96 1845.93 2403.88C1782.23 2400.8 1713.92 2394.63 1640.97 2385.39C1568.03 2376.14 1506.39 2363.3 1456.05 2346.86C1405.71 2330.42 1355.89 2307.31 1306.57 2277.51C1257.26 2247.72 1217.71 2212.28 1187.92 2171.18C1158.12 2130.09 1133.98 2079.75 1115.49 2020.16C1097 1960.58 1087.75 1892.77 1087.75 1816.75ZM2058.59 1084.77C2033.93 1046.76 1986.16 1028.26 1915.28 1029.29C1844.39 1030.32 1769.91 1050.35 1691.83 1089.39C1613.75 1128.43 1555.71 1174.66 1517.69 1228.08C1479.68 1281.5 1473 1327.22 1497.66 1365.23C1522.32 1403.24 1570.09 1421.74 1640.97 1420.71C1711.86 1419.68 1786.34 1399.65 1864.42 1360.61C1942.5 1321.57 2000.55 1275.34 2038.56 1221.92C2076.57 1168.5 2083.25 1122.78 2058.59 1084.77Z" fill="#0075E3"/>
<path fill-rule="evenodd" clip-rule="evenodd" d="M2074 633.25C1860.31 633.25 1662.55 686.158 1480.71 791.975C1298.87 897.791 1155.04 1041.62 1049.22 1223.46C943.408 1405.3 890.5 1603.06 890.5 1816.75C890.5 2030.44 943.408 2228.2 1049.22 2410.04C1155.04 2591.88 1298.87 2735.71 1480.71 2841.53C1662.55 2947.34 1860.31 3000.25 2074 3000.25C2287.69 3000.25 2485.45 2947.34 2667.29 2841.53C2849.13 2735.71 2992.96 2591.88 3098.78 2410.04C3204.59 2228.2 3257.5 2030.44 3257.5 1816.75C3257.5 1603.06 3204.59 1405.3 3098.78 1223.46C2992.96 1041.62 2849.13 897.791 2667.29 791.975C2485.45 686.158 2287.69 633.25 2074 633.25ZM1220.28 1322.08C1131.93 1473.1 1087.75 1637.99 1087.75 1816.75C1087.75 1892.77 1097 1960.58 1115.49 2020.16C1133.98 2079.75 1158.12 2130.09 1187.92 2171.18C1217.71 2212.28 1257.26 2247.72 1306.57 2277.51C1355.89 2307.31 1405.71 2330.42 1456.05 2346.86C1506.39 2363.3 1568.03 2376.14 1640.97 2385.39C1713.92 2394.63 1782.23 2400.8 1845.93 2403.88C1909.63 2406.96 1985.65 2408.5 2074 2408.5C2162.35 2408.5 2238.38 2406.96 2302.07 2403.88C2365.77 2400.8 2434.08 2394.63 2507.03 2385.39C2579.97 2376.14 2641.61 2363.3 2691.95 2346.86C2742.29 2330.42 2792.11 2307.31 2841.43 2277.51C2890.74 2247.72 2930.29 2212.28 2960.08 2171.18C2989.88 2130.09 3014.02 2079.75 3032.51 2020.16C3051 1960.58 3060.25 1892.77 3060.25 1816.75C3060.25 1637.99 3016.07 1473.1 2927.72 1322.08C2839.37 1171.06 2719.69 1051.38 2568.67 963.027C2417.65 874.676 2252.76 830.5 2074 830.5C1895.24 830.5 1730.35 874.676 1579.33 963.027C1428.31 1051.38 1308.63 1171.06 1220.28 1322.08Z" fill="#0075E3"/>
<path d="M2058.59 1084.77C2033.93 1046.76 1986.16 1028.26 1915.28 1029.29C1844.39 1030.32 1769.91 1050.35 1691.83 1089.39C1613.75 1128.43 1555.71 1174.66 1517.69 1228.08C1479.68 1281.5 1473 1327.22 1497.66 1365.23C1522.32 1403.24 1570.09 1421.74 1640.97 1420.71C1711.86 1419.68 1786.34 1399.65 1864.42 1360.61C1942.5 1321.57 2000.55 1275.34 2038.56 1221.92C2076.57 1168.5 2083.25 1122.78 2058.59 1084.77Z" fill="#0075E3"/>
<path fill-rule="evenodd" clip-rule="evenodd" d="M2074 633.25C1860.31 633.25 1662.55 686.158 1480.71 791.975C1298.87 897.791 1155.04 1041.62 1049.22 1223.46C943.408 1405.3 890.5 1603.06 890.5 1816.75C890.5 2030.44 943.408 2228.2 1049.22 2410.04C1155.04 2591.88 1298.87 2735.71 1480.71 2841.53C1662.55 2947.34 1860.31 3000.25 2074 3000.25C2287.69 3000.25 2485.45 2947.34 2667.29 2841.53C2849.13 2735.71 2992.96 2591.88 3098.78 2410.04C3204.59 2228.2 3257.5 2030.44 3257.5 1816.75C3257.5 1603.06 3204.59 1405.3 3098.78 1223.46C2992.96 1041.62 2849.13 897.791 2667.29 791.975C2485.45 686.158 2287.69 633.25 2074 633.25ZM1220.28 1322.08C1131.93 1473.1 1087.75 1637.99 1087.75 1816.75C1087.75 1892.77 1097 1960.58 1115.49 2020.16C1133.98 2079.75 1158.12 2130.09 1187.92 2171.18C1217.71 2212.28 1257.26 2247.72 1306.57 2277.51C1355.89 2307.31 1405.71 2330.42 1456.05 2346.86C1506.39 2363.3 1568.03 2376.14 1640.97 2385.39C1713.92 2394.63 1782.23 2400.8 1845.93 2403.88C1909.63 2406.96 1985.65 2408.5 2074 2408.5C2162.35 2408.5 2238.38 2406.96 2302.07 2403.88C2365.77 2400.8 2434.08 2394.63 2507.03 2385.39C2579.97 2376.14 2641.61 2363.3 2691.95 2346.86C2742.29 2330.42 2792.11 2307.31 2841.43 2277.51C2890.74 2247.72 2930.29 2212.28 2960.08 2171.18C2989.88 2130.09 3014.02 2079.75 3032.51 2020.16C3051 1960.58 3060.25 1892.77 3060.25 1816.75C3060.25 1637.99 3016.07 1473.1 2927.72 1322.08C2839.37 1171.06 2719.69 1051.38 2568.67 963.027C2417.65 874.676 2252.76 830.5 2074 830.5C1895.24 830.5 1730.35 874.676 1579.33 963.027C1428.31 1051.38 1308.63 1171.06 1220.28 1322.08Z" fill="#0B0045"/>
<circle cx="2074" cy="1813.13" r="1183.98" fill="#0B0045"/>
<path d="M2359.18 875.03C1859.67 910.991 1465.59 1327.63 1465.59 1836.31C1465.59 2344.99 1859.67 2761.63 2359.18 2797.59C2268.79 2824.36 2173.07 2838.73 2074 2838.73C1520.38 2838.73 1071.57 2389.93 1071.57 1836.31C1071.57 1282.68 1520.38 833.883 2074 833.883C2173.07 833.883 2268.79 848.256 2359.18 875.03Z" fill="#FFE203"/>
<path d="M3095.74 1793.81C3095.74 1525.34 3014.62 1347.65 2931.57 1276.18C2991.45 1444.22 3022.35 1569.77 3022.35 1793.81C3022.35 2017.86 3007.61 2189.76 2931.57 2371.32C2963.12 2295.99 3095.74 2083.53 3095.74 1793.81Z" fill="#FFE203"/>
<path d="M4264.59 2038V1006.01H4690.36C4789.99 1006.01 4863.3 1031.85 4910.29 1083.55C4957.29 1134.3 4980.78 1200.56 4980.78 1282.33C4980.78 1334.97 4969.03 1382.9 4945.54 1426.13C4922.04 1468.43 4886.79 1493.81 4839.8 1502.27C4884.91 1510.72 4922.51 1536.1 4952.59 1578.4C4982.66 1619.75 4997.7 1671.91 4997.7 1734.89C4997.7 1783.76 4991.59 1826.53 4979.37 1863.18C4968.09 1899.84 4950.24 1931.32 4925.8 1957.64C4902.3 1983.96 4870.82 2004.16 4831.34 2018.26C4792.81 2031.42 4746.75 2038 4693.18 2038H4264.59ZM4461.97 1863.18L4686.13 1864.59C4762.26 1864.59 4800.32 1818.54 4800.32 1726.43C4800.32 1699.17 4796.57 1675.2 4789.05 1654.53C4782.47 1633.85 4770.25 1616.46 4752.39 1602.36C4734.53 1588.26 4712.45 1581.22 4686.13 1581.22H4461.97V1863.18ZM4461.97 1414.86H4677.67C4713.39 1414.86 4740.17 1404.99 4758.03 1385.25C4776.83 1364.57 4786.23 1335.44 4786.23 1297.84C4786.23 1282.8 4784.82 1269.17 4782 1256.95C4779.18 1243.8 4774.95 1232.99 4769.31 1224.53C4763.67 1216.07 4757.56 1209.02 4750.98 1203.38C4744.4 1196.8 4736.88 1192.1 4728.42 1189.28C4719.96 1186.46 4711.51 1184.58 4703.05 1183.64C4695.53 1181.76 4687.07 1180.82 4677.67 1180.82H4461.97V1414.86ZM5073.15 1837.8V1006.01H5270.52V1782.82C5270.52 1800.68 5272.4 1815.25 5276.16 1826.53C5280.86 1836.86 5288.38 1843.91 5298.72 1847.67C5310 1851.43 5318.93 1853.78 5325.51 1854.72C5332.09 1855.66 5342.9 1856.13 5357.93 1856.13H5711.8V2038H5287.44C5144.58 2038 5073.15 1971.27 5073.15 1837.8ZM5790.84 1586.85V1006.01H5988.22V1586.85C5988.22 1646.07 5991.5 1693.53 5998.08 1729.25C6004.66 1764.96 6016.41 1793.16 6033.33 1813.84C6050.25 1833.57 6070.46 1846.73 6093.95 1853.31C6117.45 1859.89 6148.94 1863.18 6188.41 1863.18C6223.19 1863.18 6251.85 1859.42 6274.41 1851.9C6296.97 1844.38 6316.24 1830.76 6332.21 1811.02C6349.13 1790.34 6361.35 1762.14 6368.87 1726.43C6376.39 1689.77 6380.15 1643.25 6380.15 1586.85V1006.01H6578.93V1586.85C6578.93 1636.67 6576.11 1682.25 6570.47 1723.61C6564.84 1764.02 6557.79 1799.27 6549.33 1829.35C6540.87 1858.48 6529.12 1884.8 6514.08 1908.3C6499.98 1931.79 6485.88 1951.06 6471.79 1966.1C6458.63 1980.2 6441.24 1992.89 6419.62 2004.16C6398.95 2014.5 6381.09 2022.49 6366.05 2028.13C6351.01 2032.83 6330.8 2036.59 6305.43 2039.41C6280.99 2042.23 6261.25 2043.64 6246.21 2043.64C6232.12 2044.58 6212.85 2045.05 6188.41 2045.05C6185.59 2045.05 6180.89 2045.05 6174.31 2045.05C6138.6 2045.05 6111.34 2044.58 6092.54 2043.64C6074.68 2042.7 6049.78 2039.41 6017.82 2033.77C5985.87 2028.13 5960.96 2020.14 5943.1 2009.8C5926.18 1998.52 5906.45 1982.08 5883.89 1960.46C5861.33 1937.9 5844.41 1910.65 5833.13 1878.69C5821.86 1846.73 5811.99 1806.32 5803.53 1757.44C5795.07 1707.63 5790.84 1650.77 5790.84 1586.85ZM6681.94 1834.98V1220.3C6681.94 1185.52 6686.64 1154.98 6696.04 1128.66C6705.44 1102.34 6717.65 1081.67 6732.69 1066.63C6747.73 1051.59 6765.12 1039.37 6784.86 1029.97C6805.53 1019.63 6825.27 1013.05 6844.07 1010.23C6863.81 1007.42 6884.48 1006.01 6906.1 1006.01C7148.59 1012.58 7299.91 1020.1 7360.07 1028.56V1192.1H6952.63C6934.77 1192.1 6920.67 1193.98 6910.33 1197.74C6899.99 1201.5 6892.47 1208.08 6887.77 1217.48C6884.01 1226.88 6881.66 1234.87 6880.72 1241.45C6879.78 1248.03 6879.32 1257.89 6879.32 1271.05V1431.77L7296.62 1445.87V1609.41L6879.32 1622.1V1782.82C6879.32 1800.68 6881.66 1815.25 6886.36 1826.53C6891.06 1836.86 6898.58 1844.38 6908.92 1849.08C6919.26 1852.84 6927.72 1855.19 6934.3 1856.13C6941.82 1856.13 6952.63 1856.13 6966.72 1856.13H7360.07V2018.26C7336.57 2021.08 7288.17 2024.84 7214.85 2029.54C7141.54 2033.3 7073.87 2036.12 7011.84 2038L6920.2 2042.23C6898.58 2043.17 6878.38 2042.7 6859.58 2040.82C6840.78 2038.94 6820.1 2033.77 6797.54 2025.31C6774.99 2016.85 6755.25 2005.57 6738.33 1991.48C6722.35 1977.38 6708.73 1957.17 6697.45 1930.85C6687.11 1903.6 6681.94 1871.64 6681.94 1834.98ZM4237.8 3190L4328.03 2158.01H4602.95L4774.95 2862.92L4945.54 2158.01H5219.04L5314.91 3190H5120.36L5052.68 2500.59L4886.32 3190H4666.39L4492.98 2500.59L4432.36 3190H4237.8ZM5400.46 2681.05C5400.46 2633.12 5401.87 2588.94 5404.69 2548.53C5408.45 2508.11 5413.62 2471.93 5420.2 2439.97C5427.72 2408.02 5435.71 2379.35 5444.16 2353.97C5453.56 2327.65 5464.84 2305.1 5478 2286.3C5491.16 2266.56 5504.32 2249.64 5517.48 2235.55C5531.57 2220.51 5548.02 2208.29 5566.82 2198.89C5585.62 2188.55 5603.48 2180.56 5620.39 2174.92C5638.25 2168.34 5658.46 2163.64 5681.02 2160.83C5703.57 2157.07 5724.72 2154.72 5744.46 2153.78C5765.14 2151.9 5788.63 2150.96 5814.95 2150.96C5848.79 2150.96 5877.92 2151.9 5902.36 2153.78C5927.74 2155.66 5954.05 2159.89 5981.31 2166.46C6009.51 2172.1 6033.47 2180.56 6053.21 2191.84C6072.95 2203.12 6092.69 2217.69 6112.42 2235.55C6133.1 2252.46 6150.02 2274.55 6163.18 2301.81C6176.34 2328.12 6188.08 2359.14 6198.42 2394.86C6208.76 2429.63 6216.28 2471.46 6220.98 2520.33C6226.62 2568.27 6229.44 2621.84 6229.44 2681.05C6229.44 2744.96 6225.68 2802.3 6218.16 2853.05C6211.58 2902.86 6202.65 2946.1 6191.37 2982.76C6180.1 3018.47 6164.59 3049.49 6144.85 3075.8C6126.05 3101.18 6105.84 3121.86 6084.23 3137.84C6063.55 3152.87 6038.17 3165.09 6008.1 3174.49C5978.02 3182.95 5947.94 3188.59 5917.87 3191.41C5888.73 3194.23 5854.42 3195.64 5814.95 3195.64C5780.17 3195.64 5749.63 3194.7 5723.31 3192.82C5697.93 3190.94 5671.15 3187.18 5642.95 3181.54C5615.69 3175.9 5592.2 3167.91 5572.46 3157.57C5552.72 3146.3 5532.98 3132.2 5513.25 3115.28C5493.51 3097.42 5477.06 3075.8 5463.9 3050.43C5450.74 3024.11 5439 2994.03 5428.66 2960.2C5419.26 2925.42 5412.21 2885.01 5407.51 2838.95C5402.81 2791.96 5400.46 2739.32 5400.46 2681.05ZM5597.84 2681.05C5597.84 2739.32 5599.72 2787.26 5603.48 2824.85C5607.23 2861.51 5613.34 2893 5621.8 2919.31C5631.2 2945.63 5644.83 2965.37 5662.69 2978.53C5680.55 2991.68 5700.75 3001.08 5723.31 3006.72C5746.81 3011.42 5777.35 3013.77 5814.95 3013.77C5873.22 3013.77 5916.93 3005.31 5946.06 2988.39C5975.2 2971.48 5996.82 2939.52 6010.92 2892.53C6025.01 2844.59 6032.06 2774.1 6032.06 2681.05C6032.06 2627.48 6030.18 2581.89 6026.42 2544.3C6023.6 2505.76 6017.96 2473.81 6009.51 2448.43C6001.05 2422.11 5991.65 2401.44 5981.31 2386.4C5971.91 2371.36 5958.28 2360.08 5940.42 2352.56C5922.57 2344.1 5904.24 2338.93 5885.44 2337.05C5867.58 2334.23 5844.09 2332.82 5814.95 2332.82C5790.51 2332.82 5770.3 2333.76 5754.33 2335.64C5739.29 2336.58 5722.84 2339.4 5704.98 2344.1C5688.06 2348.8 5674.44 2356.32 5664.1 2366.66C5654.7 2376.06 5644.83 2389.22 5634.49 2406.14C5625.09 2423.05 5618.04 2444.2 5613.34 2469.58C5608.64 2494.01 5604.89 2523.62 5602.07 2558.4C5599.25 2593.17 5597.84 2634.06 5597.84 2681.05ZM6304.02 2681.05C6304.02 2633.12 6305.43 2588.94 6308.25 2548.53C6312.01 2508.11 6317.18 2471.93 6323.75 2439.97C6331.27 2408.02 6339.26 2379.35 6347.72 2353.97C6357.12 2327.65 6368.4 2305.1 6381.56 2286.3C6394.72 2266.56 6407.87 2249.64 6421.03 2235.55C6435.13 2220.51 6451.58 2208.29 6470.38 2198.89C6489.17 2188.55 6507.03 2180.56 6523.95 2174.92C6541.81 2168.34 6562.02 2163.64 6584.57 2160.83C6607.13 2157.07 6628.28 2154.72 6648.01 2153.78C6668.69 2151.9 6692.19 2150.96 6718.51 2150.96C6752.34 2150.96 6781.48 2151.9 6805.92 2153.78C6831.29 2155.66 6857.61 2159.89 6884.87 2166.46C6913.06 2172.1 6937.03 2180.56 6956.77 2191.84C6976.5 2203.12 6996.24 2217.69 7015.98 2235.55C7036.66 2252.46 7053.58 2274.55 7066.73 2301.81C7079.89 2328.12 7091.64 2359.14 7101.98 2394.86C7112.32 2429.63 7119.84 2471.46 7124.54 2520.33C7130.18 2568.27 7133 2621.84 7133 2681.05C7133 2744.96 7129.24 2802.3 7121.72 2853.05C7115.14 2902.86 7106.21 2946.1 7094.93 2982.76C7083.65 3018.47 7068.14 3049.49 7048.41 3075.8C7029.61 3101.18 7009.4 3121.86 6987.78 3137.84C6967.11 3152.87 6941.73 3165.09 6911.65 3174.49C6881.58 3182.95 6851.5 3188.59 6821.42 3191.41C6792.29 3194.23 6757.98 3195.64 6718.51 3195.64C6683.73 3195.64 6653.18 3194.7 6626.87 3192.82C6601.49 3190.94 6574.7 3187.18 6546.51 3181.54C6519.25 3175.9 6495.75 3167.91 6476.02 3157.57C6456.28 3146.3 6436.54 3132.2 6416.8 3115.28C6397.07 3097.42 6380.62 3075.8 6367.46 3050.43C6354.3 3024.11 6342.55 2994.03 6332.21 2960.2C6322.81 2925.42 6315.77 2885.01 6311.07 2838.95C6306.37 2791.96 6304.02 2739.32 6304.02 2681.05ZM6501.39 2681.05C6501.39 2739.32 6503.27 2787.26 6507.03 2824.85C6510.79 2861.51 6516.9 2893 6525.36 2919.31C6534.76 2945.63 6548.39 2965.37 6566.24 2978.53C6584.1 2991.68 6604.31 3001.08 6626.87 3006.72C6650.36 3011.42 6680.91 3013.77 6718.51 3013.77C6776.78 3013.77 6820.48 3005.31 6849.62 2988.39C6878.76 2971.48 6900.37 2939.52 6914.47 2892.53C6928.57 2844.59 6935.62 2774.1 6935.62 2681.05C6935.62 2627.48 6933.74 2581.89 6929.98 2544.3C6927.16 2505.76 6921.52 2473.81 6913.06 2448.43C6904.6 2422.11 6895.2 2401.44 6884.87 2386.4C6875.47 2371.36 6861.84 2360.08 6843.98 2352.56C6826.12 2344.1 6807.8 2338.93 6789 2337.05C6771.14 2334.23 6747.64 2332.82 6718.51 2332.82C6694.07 2332.82 6673.86 2333.76 6657.88 2335.64C6642.85 2336.58 6626.4 2339.4 6608.54 2344.1C6591.62 2348.8 6577.99 2356.32 6567.65 2366.66C6558.26 2376.06 6548.39 2389.22 6538.05 2406.14C6528.65 2423.05 6521.6 2444.2 6516.9 2469.58C6512.2 2494.01 6508.44 2523.62 6505.62 2558.4C6502.8 2593.17 6501.39 2634.06 6501.39 2681.05ZM7223.08 3190V2158.01H7423.28L7832.13 2824.85V2158.01H8029.5V3190H7832.13L7421.87 2530.2V3190H7223.08Z" fill="#0075E3"/>
</svg>
