<svg width="2286" height="2285" viewBox="0 0 2286 2285" fill="none" xmlns="http://www.w3.org/2000/svg">
<path fill-rule="evenodd" clip-rule="evenodd" d="M2045.25 1345.38C2039.87 1627.72 1966.6 1833.42 1825.43 1962.49C1684.26 2091.56 1456.38 2156.09 1141.77 2156.09C827.168 2156.09 599.281 2091.56 458.113 1962.49C316.944 1833.42 243.671 1627.72 238.293 1345.38C199.304 1323.87 168.045 1293.28 144.517 1253.62C120.989 1213.96 109.225 1170.6 109.225 1123.54V865.406C109.225 818.35 120.989 775.327 144.517 736.337C168.045 697.348 199.304 666.425 238.293 643.57V155.53C238.293 138.052 244.679 122.927 257.452 110.154C270.224 97.3818 285.349 90.9956 302.827 90.9956C320.305 90.9956 335.43 97.3818 348.203 110.154C360.975 122.927 367.361 138.052 367.361 155.53V530.635C448.029 396.189 556.931 289.304 694.066 209.981C831.201 130.657 980.436 90.9956 1141.77 90.9956C1320.59 90.9956 1483.27 138.724 1629.81 234.181C1776.36 329.638 1885.93 455.345 1958.53 611.302C2020.38 622.058 2071.8 651.3 2112.81 699.029C2153.82 746.757 2174.32 802.216 2174.32 865.406V1123.54C2174.32 1170.6 2162.55 1213.96 2139.03 1253.62C2115.5 1293.28 2084.24 1323.87 2045.25 1345.38ZM1141.77 1766.83C1569.64 1766.83 1916.5 1419.97 1916.5 992.104C1916.5 564.235 1569.64 217.378 1141.77 217.378C713.902 217.378 367.045 564.235 367.045 992.104C367.045 1419.97 713.902 1766.83 1141.77 1766.83Z" fill="black"/>
<path d="M1328.38 378.268C1001.53 401.799 743.667 674.421 743.667 1007.27C743.667 1340.12 1001.53 1612.74 1328.38 1636.27C1269.23 1653.79 1206.6 1663.2 1141.77 1663.2C779.514 1663.2 485.846 1369.53 485.846 1007.27C485.846 645.012 779.514 351.344 1141.77 351.344C1206.6 351.344 1269.23 360.749 1328.38 378.268Z" fill="black"/>
<path d="M1810.34 979.466C1810.34 803.794 1757.25 687.522 1702.91 640.76C1742.09 750.713 1762.31 832.862 1762.31 979.466C1762.31 1126.07 1752.66 1238.55 1702.91 1357.35C1723.55 1308.06 1810.34 1169.04 1810.34 979.466Z" fill="black"/>
</svg>
