<svg width="2285" height="2285" viewBox="0 0 2285 2285" fill="none" xmlns="http://www.w3.org/2000/svg">
<path d="M2044.72 1345.38C2039.34 1627.72 1966.06 1833.42 1824.9 1962.49C1683.73 2091.56 1455.84 2156.09 1141.24 2156.09C826.632 2156.09 598.746 2091.56 457.577 1962.49C316.409 1833.42 243.136 1627.72 237.758 1345.38C198.768 1323.87 167.51 1293.28 143.982 1253.62C120.453 1213.96 108.689 1170.6 108.689 1123.54V865.406C108.689 818.35 120.453 775.327 143.982 736.337C167.51 697.348 198.768 666.425 237.758 643.57V155.53C237.758 138.052 244.144 122.927 256.916 110.154C269.689 97.3818 284.814 90.9956 302.292 90.9956C319.77 90.9956 334.895 97.3818 347.668 110.154C360.44 122.927 366.826 138.052 366.826 155.53V530.635C447.494 396.189 556.395 289.304 693.531 209.981C830.666 130.657 979.901 90.9956 1141.24 90.9956C1320.05 90.9956 1482.73 138.724 1629.28 234.181C1775.82 329.638 1885.4 455.345 1958 611.303C2019.84 622.058 2071.27 651.3 2112.27 699.029C2153.28 746.757 2173.78 802.216 2173.78 865.406V1123.54C2173.78 1170.6 2162.02 1213.96 2138.49 1253.62C2114.96 1293.28 2083.7 1323.87 2044.72 1345.38ZM1141.24 220.064C1001.41 220.064 872.008 254.684 753.023 323.924C634.038 393.163 539.926 487.276 470.686 606.261C401.446 725.246 366.826 854.65 366.826 994.474C366.826 1134.3 401.446 1263.7 470.686 1382.69C539.926 1501.67 634.038 1595.79 753.023 1665.02C872.008 1734.26 1001.41 1768.88 1141.24 1768.88C1281.06 1768.88 1410.47 1734.26 1529.45 1665.02C1648.44 1595.79 1742.55 1501.67 1811.79 1382.69C1881.03 1263.7 1915.65 1134.3 1915.65 994.474C1915.65 854.65 1881.03 725.246 1811.79 606.261C1742.55 487.276 1648.44 393.163 1529.45 323.924C1410.47 254.684 1281.06 220.064 1141.24 220.064ZM495.895 994.474C495.895 877.506 524.801 769.613 582.612 670.795C640.424 571.977 718.739 493.662 817.557 435.85C916.375 378.038 1024.27 349.132 1141.24 349.132C1258.2 349.132 1366.1 378.038 1464.92 435.85C1563.73 493.662 1642.05 571.977 1699.86 670.795C1757.67 769.613 1786.58 877.506 1786.58 994.474C1786.58 1044.22 1780.53 1088.59 1768.43 1127.58C1756.33 1166.57 1740.53 1199.5 1721.04 1226.39C1701.54 1253.28 1675.66 1276.48 1643.39 1295.97C1611.13 1315.46 1578.52 1330.59 1545.58 1341.35C1512.64 1352.1 1472.31 1360.5 1424.58 1366.55C1376.85 1372.6 1332.15 1376.64 1290.47 1378.65C1248.79 1380.67 1199.05 1381.68 1141.24 1381.68C1083.42 1381.68 1033.68 1380.67 992.001 1378.65C950.323 1376.64 905.62 1372.6 857.891 1366.55C810.163 1360.5 769.829 1352.1 736.89 1341.35C703.95 1330.59 671.347 1315.46 639.08 1295.97C606.813 1276.48 580.932 1253.28 561.437 1226.39C541.942 1199.5 526.145 1166.57 514.045 1127.58C501.945 1088.59 495.895 1044.22 495.895 994.474ZM1131.15 515.51C1115.02 490.637 1083.76 478.537 1037.38 479.209C990.993 479.881 942.256 492.99 891.167 518.535C840.077 544.079 802.096 574.33 777.223 609.286C752.351 644.242 747.981 674.156 764.115 699.029C780.248 723.901 811.507 736.001 857.891 735.329C904.275 734.657 953.012 721.548 1004.1 696.004C1055.19 670.459 1093.17 640.208 1118.04 605.252C1142.92 570.296 1147.29 540.382 1131.15 515.51Z" fill="#0075E3"/>
<path fill-rule="evenodd" clip-rule="evenodd" d="M1141.24 220.064C1001.41 220.064 872.008 254.684 753.023 323.924C634.038 393.163 539.926 487.276 470.686 606.261C401.446 725.246 366.826 854.65 366.826 994.474C366.826 1134.3 401.446 1263.7 470.686 1382.69C539.926 1501.67 634.038 1595.79 753.023 1665.02C872.008 1734.26 1001.41 1768.88 1141.24 1768.88C1281.06 1768.88 1410.47 1734.26 1529.45 1665.02C1648.44 1595.79 1742.55 1501.67 1811.79 1382.69C1881.03 1263.7 1915.65 1134.3 1915.65 994.474C1915.65 854.65 1881.03 725.246 1811.79 606.261C1742.55 487.276 1648.44 393.163 1529.45 323.924C1410.47 254.684 1281.06 220.064 1141.24 220.064ZM582.612 670.795C524.801 769.613 495.895 877.506 495.895 994.474C495.895 1044.22 501.945 1088.59 514.045 1127.58C526.145 1166.57 541.942 1199.5 561.437 1226.39C580.932 1253.28 606.813 1276.48 639.08 1295.97C671.347 1315.46 703.95 1330.59 736.89 1341.35C769.829 1352.1 810.163 1360.5 857.891 1366.55C905.62 1372.6 950.323 1376.64 992.001 1378.65C1033.68 1380.67 1083.42 1381.68 1141.24 1381.68C1199.05 1381.68 1248.79 1380.67 1290.47 1378.65C1332.15 1376.64 1376.85 1372.6 1424.58 1366.55C1472.31 1360.5 1512.64 1352.1 1545.58 1341.35C1578.52 1330.59 1611.13 1315.46 1643.39 1295.97C1675.66 1276.48 1701.54 1253.28 1721.04 1226.39C1740.53 1199.5 1756.33 1166.57 1768.43 1127.58C1780.53 1088.59 1786.58 1044.22 1786.58 994.474C1786.58 877.506 1757.67 769.613 1699.86 670.795C1642.05 571.977 1563.73 493.662 1464.92 435.85C1366.1 378.038 1258.2 349.132 1141.24 349.132C1024.27 349.132 916.375 378.038 817.557 435.85C718.739 493.662 640.424 571.977 582.612 670.795Z" fill="#0075E3"/>
<path d="M1131.15 515.51C1115.02 490.637 1083.76 478.537 1037.38 479.209C990.993 479.881 942.256 492.99 891.167 518.535C840.077 544.079 802.096 574.33 777.223 609.286C752.351 644.242 747.981 674.156 764.115 699.029C780.248 723.901 811.507 736.001 857.891 735.329C904.275 734.657 953.012 721.548 1004.1 696.004C1055.19 670.459 1093.17 640.208 1118.04 605.252C1142.92 570.296 1147.29 540.382 1131.15 515.51Z" fill="#0075E3"/>
<path fill-rule="evenodd" clip-rule="evenodd" d="M1141.24 220.064C1001.41 220.064 872.008 254.684 753.023 323.924C634.038 393.163 539.926 487.276 470.686 606.261C401.446 725.246 366.826 854.65 366.826 994.474C366.826 1134.3 401.446 1263.7 470.686 1382.69C539.926 1501.67 634.038 1595.78 753.023 1665.02C872.008 1734.26 1001.41 1768.88 1141.24 1768.88C1281.06 1768.88 1410.47 1734.26 1529.45 1665.02C1648.43 1595.78 1742.55 1501.67 1811.79 1382.69C1881.03 1263.7 1915.65 1134.3 1915.65 994.474C1915.65 854.65 1881.03 725.246 1811.79 606.261C1742.55 487.276 1648.43 393.163 1529.45 323.924C1410.47 254.684 1281.06 220.064 1141.24 220.064ZM582.612 670.795C524.801 769.613 495.895 877.506 495.895 994.474C495.895 1044.22 501.945 1088.59 514.045 1127.58C526.145 1166.57 541.942 1199.5 561.437 1226.39C580.932 1253.28 606.813 1276.48 639.08 1295.97C671.347 1315.46 703.95 1330.59 736.889 1341.35C769.829 1352.1 810.163 1360.5 857.891 1366.55C905.619 1372.6 950.323 1376.64 992.001 1378.65C1033.68 1380.67 1083.42 1381.68 1141.24 1381.68C1199.05 1381.68 1248.79 1380.67 1290.47 1378.65C1332.15 1376.64 1376.85 1372.6 1424.58 1366.55C1472.31 1360.5 1512.64 1352.1 1545.58 1341.35C1578.52 1330.59 1611.13 1315.46 1643.39 1295.97C1675.66 1276.48 1701.54 1253.28 1721.04 1226.39C1740.53 1199.5 1756.33 1166.57 1768.43 1127.58C1780.53 1088.59 1786.58 1044.22 1786.58 994.474C1786.58 877.506 1757.67 769.613 1699.86 670.795C1642.05 571.977 1563.73 493.662 1464.92 435.85C1366.1 378.038 1258.2 349.132 1141.24 349.132C1024.27 349.132 916.375 378.038 817.557 435.85C718.739 493.662 640.424 571.977 582.612 670.795Z" fill="#0B0045"/>
<circle cx="1141.24" cy="992.104" r="774.726" fill="#0B0045"/>
<path d="M1327.84 378.268C1000.99 401.799 743.13 674.421 743.13 1007.27C743.13 1340.12 1000.99 1612.74 1327.84 1636.27C1268.7 1653.79 1206.06 1663.2 1141.24 1663.2C778.978 1663.2 485.31 1369.53 485.31 1007.27C485.31 645.012 778.978 351.344 1141.24 351.344C1206.06 351.344 1268.7 360.749 1327.84 378.268Z" fill="#FFE203"/>
<path d="M1809.8 979.466C1809.8 803.794 1756.72 687.522 1702.38 640.76C1741.55 750.713 1761.78 832.862 1761.78 979.466C1761.78 1126.07 1752.13 1238.55 1702.38 1357.35C1723.02 1308.06 1809.8 1169.04 1809.8 979.466Z" fill="#FFE203"/>
</svg>
