<svg width="2286" height="2285" viewBox="0 0 2286 2285" fill="none" xmlns="http://www.w3.org/2000/svg">
<path fill-rule="evenodd" clip-rule="evenodd" d="M2045.62 1345.38C2040.24 1627.72 1966.96 1833.42 1825.8 1962.49C1684.63 2091.56 1456.74 2156.09 1142.14 2156.09C827.533 2156.09 599.646 2091.56 458.478 1962.49C317.309 1833.42 244.036 1627.72 238.658 1345.38C199.669 1323.87 168.41 1293.28 144.882 1253.62C121.354 1213.96 109.59 1170.6 109.59 1123.54V865.406C109.59 818.35 121.354 775.327 144.882 736.337C168.41 697.348 199.669 666.425 238.658 643.57V155.53C238.658 138.052 245.044 122.927 257.817 110.154C270.589 97.3818 285.714 90.9956 303.192 90.9956C320.67 90.9956 335.796 97.3818 348.568 110.154C361.34 122.927 367.727 138.052 367.727 155.53V530.635C448.394 396.189 557.296 289.304 694.431 209.981C831.566 130.657 980.801 90.9956 1142.14 90.9956C1320.95 90.9956 1483.63 138.724 1630.18 234.181C1776.72 329.638 1886.3 455.345 1958.9 611.302C2020.74 622.058 2072.17 651.3 2113.17 699.029C2154.18 746.757 2174.68 802.216 2174.68 865.406V1123.54C2174.68 1170.6 2162.92 1213.96 2139.39 1253.62C2115.86 1293.28 2084.61 1323.87 2045.62 1345.38ZM1142.14 1766.83C1570.01 1766.83 1916.86 1419.97 1916.86 992.104C1916.86 564.235 1570.01 217.378 1142.14 217.378C714.268 217.378 367.411 564.235 367.411 992.104C367.411 1419.97 714.268 1766.83 1142.14 1766.83Z" fill="#FFE203"/>
<path d="M1328.74 378.268C1001.89 401.799 744.032 674.421 744.032 1007.27C744.032 1340.12 1001.89 1612.74 1328.74 1636.27C1269.6 1653.79 1206.97 1663.2 1142.14 1663.2C779.879 1663.2 486.211 1369.53 486.211 1007.27C486.211 645.012 779.879 351.344 1142.14 351.344C1206.97 351.344 1269.6 360.749 1328.74 378.268Z" fill="#FFE203"/>
<path d="M1810.7 979.466C1810.7 803.794 1757.62 687.522 1703.28 640.76C1742.46 750.713 1762.68 832.862 1762.68 979.466C1762.68 1126.07 1753.03 1238.55 1703.28 1357.35C1723.92 1308.06 1810.7 1169.04 1810.7 979.466Z" fill="#FFE203"/>
</svg>
