<svg width="2286" height="2285" viewBox="0 0 2286 2285" fill="none" xmlns="http://www.w3.org/2000/svg">
<path fill-rule="evenodd" clip-rule="evenodd" d="M2044.98 1345.38C2039.6 1627.72 1966.33 1833.42 1825.16 1962.49C1683.99 2091.56 1456.11 2156.09 1141.5 2156.09C826.9 2156.09 599.014 2091.56 457.845 1962.49C316.676 1833.42 243.403 1627.72 238.025 1345.38C199.036 1323.87 167.777 1293.28 144.249 1253.62C120.721 1213.96 108.957 1170.6 108.957 1123.54V865.406C108.957 818.35 120.721 775.327 144.249 736.337C167.777 697.348 199.036 666.425 238.025 643.57V155.53C238.025 138.052 244.412 122.927 257.184 110.154C269.956 97.3818 285.082 90.9956 302.56 90.9956C320.038 90.9956 335.163 97.3818 347.935 110.154C360.708 122.927 367.094 138.052 367.094 155.53V530.635C447.762 396.189 556.663 289.304 693.798 209.981C830.933 130.657 980.169 90.9956 1141.5 90.9956C1320.32 90.9956 1483 138.724 1629.54 234.181C1776.09 329.638 1885.66 455.345 1958.27 611.302C2020.11 622.058 2071.54 651.3 2112.54 699.029C2153.55 746.757 2174.05 802.216 2174.05 865.406V1123.54C2174.05 1170.6 2162.29 1213.96 2138.76 1253.62C2115.23 1293.28 2083.97 1323.87 2044.98 1345.38ZM1141.5 1766.83C1569.37 1766.83 1916.23 1419.97 1916.23 992.104C1916.23 564.235 1569.37 217.378 1141.5 217.378C713.634 217.378 366.778 564.235 366.778 992.104C366.778 1419.97 713.634 1766.83 1141.5 1766.83Z" fill="#0B0045"/>
<path d="M1328.11 378.268C1001.26 401.799 743.398 674.421 743.398 1007.27C743.398 1340.12 1001.26 1612.74 1328.11 1636.27C1268.96 1653.79 1206.33 1663.2 1141.5 1663.2C779.245 1663.2 485.577 1369.53 485.577 1007.27C485.577 645.012 779.245 351.344 1141.5 351.344C1206.33 351.344 1268.96 360.749 1328.11 378.268Z" fill="#0B0045"/>
<path d="M1810.07 979.466C1810.07 803.794 1756.99 687.522 1702.64 640.76C1741.82 750.713 1762.04 832.862 1762.04 979.466C1762.04 1126.07 1752.4 1238.55 1702.64 1357.35C1723.29 1308.06 1810.07 1169.04 1810.07 979.466Z" fill="#0B0045"/>
</svg>
