<svg width="2286" height="2285" viewBox="0 0 2286 2285" fill="none" xmlns="http://www.w3.org/2000/svg">
<path fill-rule="evenodd" clip-rule="evenodd" d="M2044.89 1345.38C2039.51 1627.72 1966.23 1833.42 1825.07 1962.49C1683.9 2091.56 1456.01 2156.09 1141.41 2156.09C826.802 2156.09 598.916 2091.56 457.747 1962.49C316.579 1833.42 243.306 1627.72 237.928 1345.38C198.938 1323.87 167.68 1293.28 144.152 1253.62C120.623 1213.96 108.859 1170.6 108.859 1123.54V865.406C108.859 818.35 120.623 775.327 144.152 736.337C167.68 697.348 198.938 666.425 237.928 643.57V155.53C237.928 138.052 244.314 122.927 257.086 110.154C269.859 97.3818 284.984 90.9956 302.462 90.9956C319.94 90.9956 335.065 97.3818 347.838 110.154C360.61 122.927 366.996 138.052 366.996 155.53V530.635C447.664 396.189 556.565 289.304 693.701 209.981C830.836 130.657 980.071 90.9956 1141.41 90.9956C1320.22 90.9956 1482.9 138.724 1629.45 234.181C1775.99 329.638 1885.57 455.345 1958.17 611.302C2020.01 622.058 2071.44 651.3 2112.44 699.029C2153.45 746.757 2173.95 802.216 2173.95 865.406V1123.54C2173.95 1170.6 2162.19 1213.96 2138.66 1253.62C2115.13 1293.28 2083.87 1323.87 2044.89 1345.38ZM1141.41 1766.83C1569.27 1766.83 1916.13 1419.97 1916.13 992.104C1916.13 564.235 1569.27 217.378 1141.41 217.378C713.536 217.378 366.679 564.235 366.679 992.104C366.679 1419.97 713.536 1766.83 1141.41 1766.83Z" fill="white"/>
<path d="M1328.01 378.268C1001.16 401.799 743.299 674.421 743.299 1007.27C743.299 1340.12 1001.16 1612.74 1328.01 1636.27C1268.86 1653.79 1206.23 1663.2 1141.4 1663.2C779.147 1663.2 485.479 1369.53 485.479 1007.27C485.479 645.012 779.147 351.344 1141.4 351.344C1206.23 351.344 1268.86 360.749 1328.01 378.268Z" fill="white"/>
<path d="M1809.97 979.466C1809.97 803.794 1756.89 687.522 1702.54 640.76C1741.72 750.713 1761.94 832.862 1761.94 979.466C1761.94 1126.07 1752.3 1238.55 1702.54 1357.35C1723.19 1308.06 1809.97 1169.04 1809.97 979.466Z" fill="white"/>
</svg>
