<svg width="2286" height="2285" viewBox="0 0 2286 2285" fill="none" xmlns="http://www.w3.org/2000/svg">
<path fill-rule="evenodd" clip-rule="evenodd" d="M2045.35 1345.38C2039.97 1627.72 1966.7 1833.42 1825.53 1962.49C1684.36 2091.56 1456.47 2156.09 1141.87 2156.09C827.266 2156.09 599.38 2091.56 458.211 1962.49C317.043 1833.42 243.769 1627.72 238.392 1345.38C199.402 1323.87 168.143 1293.28 144.615 1253.62C121.087 1213.96 109.323 1170.6 109.323 1123.54V865.406C109.323 818.35 121.087 775.327 144.615 736.337C168.143 697.348 199.402 666.425 238.392 643.57V155.53C238.392 138.052 244.778 122.927 257.55 110.154C270.323 97.3818 285.448 90.9956 302.926 90.9956C320.404 90.9956 335.529 97.3818 348.301 110.154C361.074 122.927 367.46 138.052 367.46 155.53V530.635C448.128 396.189 557.029 289.304 694.164 209.981C831.3 130.657 980.535 90.9956 1141.87 90.9956C1320.68 90.9956 1483.36 138.724 1629.91 234.181C1776.46 329.638 1886.03 455.345 1958.63 611.302C2020.48 622.058 2071.9 651.3 2112.91 699.029C2153.91 746.757 2174.42 802.216 2174.42 865.406V1123.54C2174.42 1170.6 2162.65 1213.96 2139.13 1253.62C2115.6 1293.28 2084.34 1323.87 2045.35 1345.38ZM1141.87 1766.83C1569.74 1766.83 1916.6 1419.97 1916.6 992.104C1916.6 564.235 1569.74 217.378 1141.87 217.378C714.001 217.378 367.144 564.235 367.144 992.104C367.144 1419.97 714.001 1766.83 1141.87 1766.83Z" fill="#0075E3"/>
<path d="M1328.47 378.268C1001.62 401.799 743.764 674.421 743.764 1007.27C743.764 1340.12 1001.62 1612.74 1328.47 1636.27C1269.33 1653.79 1206.7 1663.2 1141.87 1663.2C779.612 1663.2 485.943 1369.53 485.943 1007.27C485.943 645.012 779.612 351.344 1141.87 351.344C1206.7 351.344 1269.33 360.749 1328.47 378.268Z" fill="#0075E3"/>
<path d="M1810.44 979.466C1810.44 803.794 1757.35 687.522 1703.01 640.76C1742.19 750.713 1762.41 832.862 1762.41 979.466C1762.41 1126.07 1752.76 1238.55 1703.01 1357.35C1723.65 1308.06 1810.44 1169.04 1810.44 979.466Z" fill="#0075E3"/>
</svg>
